<?xml version="1.0" standalone="no"?>
<!DOCTYPE svg PUBLIC "-//W3C//DTD SVG 20010904//EN"
 "http://www.w3.org/TR/2001/REC-SVG-20010904/DTD/svg10.dtd">
<svg version="1.0" xmlns="http://www.w3.org/2000/svg"
 width="654.000000pt" height="654.000000pt" viewBox="0 0 654.000000 654.000000"
 preserveAspectRatio="xMidYMid meet">
<metadata>
Created by potrace 1.11, written by Peter Selinger 2001-2013
</metadata>
<g transform="translate(0.000000,654.000000) scale(0.100000,-0.100000)"
fill="#000000" stroke="none">
<path d="M252 6268 c-16 -16 -16 -190 0 -206 9 -9 69 -12 210 -12 l198 0 0
-795 c0 -437 3 -795 8 -795 4 0 54 -1 112 -2 l105 -1 3 797 2 796 1313 -2
1312 -3 3 -92 3 -93 -1218 -2 -1218 -3 0 -110 0 -110 1325 0 1325 0 3 208 2
207 1164 0 c639 0 1165 -2 1167 -4 2 -2 3 -45 1 -95 l-3 -91 -1065 0 -1064 0
-5 -22 c-3 -13 -4 -63 -3 -113 l3 -90 243 -3 242 -2 0 -95 0 -95 -1670 0
-1670 0 2 -816 3 -815 205 -2 205 -2 3 -1162 2 -1163 1660 0 1660 0 0 -95 0
-95 -867 -2 c-478 -1 -882 -1 -900 0 -41 2 -42 -4 -42 -233 l0 -180 -335 -3
-336 -2 0 -210 0 -210 -1047 -2 -1048 -3 -3 -101 c-2 -77 1 -104 11 -113 11
-8 714 -10 2818 -9 l2804 3 0 795 0 795 -90 3 c-49 2 -100 0 -113 -3 l-22 -5
0 -468 1 -467 -1108 -5 -1108 -5 -3 -90 c-2 -49 0 -100 3 -113 l5 -22 1105 0
1105 0 0 -95 0 -95 -1545 0 -1545 0 0 95 0 95 338 2 337 3 3 208 2 207 1110 0
1110 0 0 1040 0 1040 95 0 95 0 2 -562 3 -563 208 -3 207 -2 0 -883 c0 -485 4
-888 8 -895 6 -9 36 -12 113 -10 l104 3 0 3025 0 3025 -3015 3 c-2338 1 -3019
-1 -3028 -10z m5399 -1073 c0 -236 3 -436 8 -443 6 -9 35 -12 112 -10 l104 3
3 443 2 442 95 0 95 0 0 -1700 0 -1700 -95 0 -95 0 0 1160 c0 638 -3 1160 -7
1160 -5 0 -98 1 -208 3 l-200 2 -3 443 -2 442 -310 0 -310 0 0 -110 0 -110
198 -2 197 -3 3 -717 2 -718 -22 -5 c-13 -3 -292 -4 -621 -3 -591 3 -598 3
-603 -17 -2 -11 -3 -245 -2 -520 l3 -500 303 -3 c231 -2 302 -5 303 -15 0 -6
1 -48 1 -92 l0 -80 -1021 -3 -1021 -2 0 90 0 90 618 2 617 3 5 618 5 618 618
-1 c411 0 617 3 617 10 0 5 0 243 0 528 l1 517 -1658 5 -1658 5 0 95 0 95
1455 0 c958 0 1458 3 1462 10 4 6 8 98 8 206 0 108 2 198 4 200 2 2 228 2 500
-1 l497 -5 0 -430z m-4151 -570 l0 -595 -95 0 c-78 0 -95 3 -95 15 0 8 0 269
0 580 0 311 0 572 0 580 0 12 17 15 95 15 l95 0 0 -595z m3320 -130 l0 -305
-1242 -2 -1243 -3 -3 -312 -2 -313 622 -2 623 -3 3 -302 2 -303 -622 -2 -623
-3 0 -315 0 -315 1243 -3 1242 -2 0 -305 0 -305 -1550 0 -1550 0 0 1550 0
1550 1550 0 1550 0 0 -305z m830 -655 l0 -480 -617 -2 -618 -3 0 -105 0 -105
413 -3 412 -2 0 -90 c0 -79 -2 -90 -17 -91 -10 0 -51 -1 -92 0 -110 0 -111 -1
-111 -119 0 -64 4 -101 12 -106 6 -4 54 -8 107 -8 l96 -1 3 -714 c1 -393 -1
-718 -5 -721 -5 -3 -48 -3 -98 0 l-90 5 -2 615 c-2 338 -3 618 -3 623 0 4 -47
7 -104 7 l-103 0 0 199 c0 109 -3 203 -7 210 -5 7 -95 10 -304 9 l-297 -2 -3
297 -2 297 620 0 620 0 0 385 0 385 95 0 95 0 0 -480z m-2070 30 l0 -90 -510
0 -510 0 0 90 0 90 510 0 510 0 0 -90z"/>
<path d="M246 5845 c-3 -9 -6 -1179 -6 -2600 0 -2199 2 -2584 14 -2594 9 -8
48 -11 112 -9 l99 3 3 1698 2 1697 95 0 95 0 2 -1697 3 -1698 738 -3 c586 -2
737 0 738 10 1 16 1 140 0 186 l-1 32 -415 0 -415 0 0 95 0 95 755 0 756 0 -3
112 -3 112 -865 0 -865 1 -3 -207 -2 -208 -95 0 -95 0 0 880 0 880 95 0 95 0
0 -575 0 -576 113 3 112 3 2 1063 2 1062 -114 0 -115 0 0 -377 0 -378 -83 1
c-45 1 -88 2 -94 3 -10 1 -13 152 -15 702 l-3 701 -205 1 -205 2 -5 795 -5
795 -106 3 c-91 2 -108 0 -113 -13z"/>
</g>
</svg>
